<?xml version="1.0" encoding="utf-8"?>

<!DOCTYPE svg PUBLIC "-//W3C//DTD SVG 1.1//EN" "http://www.w3.org/Graphics/SVG/1.1/DTD/svg11.dtd">
<!-- Uploaded to: SVG Repo, www.svgrepo.com, Generator: SVG Repo Mixer Tools -->
<svg height="64px" width="64px" version="1.1" id="_x32_" xmlns="http://www.w3.org/2000/svg" xmlns:xlink="http://www.w3.org/1999/xlink" 
	 viewBox="0 0 512 512" xml:space="preserve" fill="white">
<g>
	<path class="st0" d="M250.882,36.828c10.171,0.016,18.43-8.227,18.438-18.39C269.328,8.26,261.093,0.008,250.923,0
		c-10.171-0.008-18.422,8.227-18.43,18.397C232.477,28.568,240.711,36.819,250.882,36.828z"/>
	<path class="st0" d="M260.344,99.258c0.008-5.979-4.834-10.838-10.813-10.838c-5.978,0-10.837,4.842-10.846,10.821
		c-0.008,5.988,4.842,10.838,10.83,10.838C255.494,110.087,260.344,105.244,260.344,99.258z"/>
	<path class="st0" d="M262.403,60.445c-0.008,7.157,5.789,12.954,12.946,12.97c7.148,0,12.945-5.78,12.954-12.945
		c0.008-7.148-5.781-12.946-12.929-12.946C268.217,47.508,262.411,53.297,262.403,60.445z"/>
	<path class="st0" d="M433.948,438.312L330.276,272.73c-9.437-15.078-14.436-32.504-14.436-50.284l0.131-107.591h-18.347
		l-0.124,107.27v0.321c0,21.222,5.979,42.016,17.236,60.009l103.671,165.591c3.022,4.826,4.546,10.311,4.546,15.812
		c0,4.974-1.244,9.948-3.739,14.46c-5.254,9.471-15.243,15.351-26.064,15.351c-0.066,0-0.099,0-0.165,0l-274.171-0.297
		c-10.846-0.008-20.827-5.913-26.065-15.4c-2.478-4.512-3.705-9.454-3.705-14.412c0-5.518,1.524-11.018,4.57-15.852l104.026-165.385
		c11.332-18.002,17.344-38.821,17.368-60.1l0.116-107.369H196.81l-0.132,107.353c-0.025,17.82-5.064,35.278-14.552,50.365
		L78.101,437.95c-4.916,7.807-7.395,16.701-7.386,25.611c-0.008,7.988,1.984,16.01,5.986,23.256
		c8.458,15.35,24.59,24.87,42.098,24.886L393.094,512l0.008-9.166V512c0.428,0,0.643-0.024,0.66-0.024v-0.025
		c17.252-0.214,33.097-9.635,41.488-24.746c4.027-7.272,6.036-15.326,6.036-23.347C441.285,454.98,438.823,446.111,433.948,438.312z
		"/>
	<path class="st0" d="M193.005,332.755l-71.554,113.727c-3.022,4.825-3.195,10.92-0.453,15.893c2.75,4.99,7.996,8.351,13.703,8.367
		h242.606c5.69,0,10.936-3.096,13.686-8.07c2.768-4.982,2.602-11.085-0.42-15.902l-71.291-113.882
		c-2.882-4.588-7.84-7.338-13.266-7.346l-99.768-0.107C200.829,325.434,195.879,328.176,193.005,332.755z M287.569,411.796
		c6.325,0,11.455,5.122,11.455,11.455c0,6.332-5.13,11.455-11.455,11.455c-6.333,0-11.455-5.123-11.455-11.455
		C276.114,416.918,281.236,411.796,287.569,411.796z M232.575,362.525c9.487,0,17.186,7.692,17.186,17.187
		c0,9.487-7.7,17.178-17.186,17.178c-9.495,0-17.187-7.692-17.187-17.178C215.388,370.216,223.08,362.525,232.575,362.525z"/>
</g>
</svg>